<?xml version="1.0" standalone="no"?>
<!DOCTYPE svg PUBLIC "-//W3C//DTD SVG 20010904//EN"
 "http://www.w3.org/TR/2001/REC-SVG-20010904/DTD/svg10.dtd">
<svg version="1.0" xmlns="http://www.w3.org/2000/svg"
 width="840.000000pt" height="859.000000pt" viewBox="0 0 840.000000 859.000000"
 preserveAspectRatio="xMidYMid meet">
<metadata>
Created by potrace 1.16, written by Peter Selinger 2001-2019
</metadata>
<g transform="translate(0.000000,859.000000) scale(0.100000,-0.100000)"
fill="#000000" stroke="none">
<path d="M5020 6688 c0 -24 -4 -49 -9 -57 -9 -14 1 -41 27 -69 6 -7 12 -22 12
-32 0 -10 3 -25 6 -33 3 -9 -3 -16 -15 -20 -13 -3 -21 0 -21 8 0 7 -7 16 -16
19 -22 9 -24 8 -24 -9 0 -9 -7 -15 -17 -13 -24 4 -41 -46 -25 -72 10 -17 8
-18 -16 -17 -21 2 -28 -3 -30 -20 -3 -18 2 -23 17 -23 12 0 21 -7 21 -15 0 -8
11 -22 25 -32 47 -33 68 -53 57 -53 -6 0 -17 6 -24 13 -18 17 -157 87 -174 87
-8 0 -14 5 -14 10 0 6 -9 10 -20 10 -11 0 -20 5 -20 10 0 6 -6 10 -14 10 -10
0 -14 9 -13 26 1 15 -4 29 -10 31 -8 3 -13 -3 -13 -14 0 -18 -6 -19 -57 -15
-32 2 -63 9 -69 13 -8 6 -14 4 -17 -4 -6 -17 -65 -28 -73 -15 -3 5 -12 4 -20
-3 -10 -8 -14 -8 -14 0 0 6 -9 11 -20 11 -22 0 -27 -15 -7 -23 6 -3 0 -6 -15
-6 -31 -1 -32 -4 -18 -30 7 -14 2 -25 -24 -50 -18 -18 -39 -31 -46 -29 -7 2
-15 -3 -17 -9 -3 -7 0 -13 6 -13 7 0 8 -6 2 -17 -17 -34 -33 -101 -27 -112 4
-6 -2 -16 -14 -23 -23 -15 -26 -34 -6 -45 8 -4 17 -30 21 -58 3 -28 17 -73 30
-101 14 -28 25 -56 25 -62 0 -7 5 -12 10 -12 6 0 10 -7 10 -16 0 -16 47 -79
103 -138 15 -16 27 -33 27 -38 0 -4 43 -52 96 -105 52 -54 91 -99 85 -101 -6
-2 -44 31 -86 72 -47 48 -82 76 -96 76 -18 0 -19 2 -9 15 10 12 9 15 -5 15
-11 0 -15 5 -12 14 3 8 -2 21 -12 30 -14 13 -24 14 -45 6 -38 -14 -49 -13 -42
5 3 9 0 15 -9 15 -10 0 -15 10 -15 28 0 21 -7 32 -26 40 -28 14 -24 32 9 32
16 0 18 3 9 12 -7 7 -12 19 -12 28 -1 25 -37 60 -62 60 -13 0 -30 9 -38 20 -8
11 -20 20 -27 20 -8 0 -12 13 -11 35 1 19 6 35 13 35 6 0 17 11 23 25 10 22 9
25 -8 25 -11 0 -20 4 -20 10 0 5 -11 20 -24 33 -13 13 -27 34 -31 47 -7 21 -5
22 18 16 20 -5 29 -1 37 15 7 12 10 30 7 40 -3 10 -1 22 4 25 21 12 -29 164
-53 164 -5 0 -8 6 -8 14 0 7 -8 16 -19 19 -10 2 -25 17 -32 33 -16 34 -49 42
-73 19 -19 -20 -20 -31 -3 -45 83 -70 99 -89 104 -126 6 -46 6 -67 0 -114 l-4
-35 -84 -7 c-46 -4 -94 -7 -106 -8 -13 0 -23 -4 -23 -10 0 -5 -21 -7 -50 -3
-40 5 -54 2 -70 -12 -10 -9 -26 -15 -33 -12 -8 3 -24 -1 -35 -9 -16 -11 -22
-11 -26 -1 -5 9 -7 9 -12 0 -3 -7 -13 -13 -23 -13 -9 0 -22 -5 -29 -12 -9 -9
-15 -9 -24 0 -16 16 -85 15 -91 0 -3 -10 -9 -10 -27 0 -12 8 -25 10 -29 5 -8
-11 -34 -14 -103 -13 -35 1 -58 -3 -58 -9 0 -6 5 -11 10 -11 6 0 0 -11 -12
-23 -13 -13 -25 -20 -28 -16 -3 4 -14 8 -25 9 -82 4 -89 3 -250 -16 -27 -4
-53 -10 -56 -15 -3 -5 -34 -10 -69 -12 -63 -4 -64 -5 -72 -35 -8 -29 -38 -46
-38 -22 0 6 -9 10 -20 10 -11 0 -20 7 -20 15 0 8 -7 15 -15 15 -8 0 -15 -7
-15 -15 0 -8 -14 -18 -32 -23 -17 -4 -33 -13 -34 -20 -1 -7 0 -8 3 -2 6 13 43
13 43 0 0 -12 -19 -14 -132 -11 -57 1 -88 -2 -88 -9 0 -6 -7 -6 -20 2 -16 10
-26 10 -52 -1 -18 -7 -42 -14 -53 -16 -11 -1 -23 -3 -27 -4 -20 -3 -5 -21 17
-21 14 0 25 5 25 10 0 16 94 11 136 -7 31 -13 35 -17 19 -21 -11 -2 -24 -8
-29 -13 -6 -5 -33 -9 -62 -9 -38 0 -53 -4 -58 -16 -5 -13 -9 -14 -21 -4 -13
10 -15 9 -15 -9 0 -18 -4 -20 -27 -15 -16 4 -36 11 -45 16 -13 6 -18 5 -18 -5
0 -19 -76 -57 -116 -57 -19 0 -34 -4 -34 -10 0 -5 -9 -10 -19 -10 -11 0 -23
-4 -26 -10 -3 -5 -17 -10 -31 -10 -31 0 -122 -29 -130 -41 -3 -5 -14 -9 -25
-9 -27 0 -24 -20 4 -22 62 -4 143 5 152 17 7 8 22 11 38 8 26 -5 57 14 57 36
0 15 10 14 42 -3 16 -9 28 -10 30 -4 2 5 32 12 66 15 48 4 62 3 62 -8 0 -10 3
-10 12 -1 16 16 28 15 28 -3 0 -16 -45 -21 -54 -6 -9 13 -56 10 -56 -4 0 -8 9
-10 25 -7 37 7 32 -24 -6 -37 -17 -6 -35 -9 -39 -6 -4 2 -16 -4 -26 -14 -19
-18 -20 -17 -41 23 l-22 41 -1 -32 c0 -17 6 -34 13 -36 6 -3 -2 -6 -20 -6 -17
-1 -35 -5 -38 -11 -3 -5 -22 -10 -41 -10 -19 0 -34 -4 -34 -10 0 -5 -7 -10
-15 -10 -9 0 -15 -9 -15 -21 0 -18 5 -20 27 -16 44 8 55 -2 30 -27 -29 -28
-91 -58 -109 -51 -8 3 -23 -3 -33 -15 -10 -11 -26 -20 -36 -20 -24 0 -51 -29
-45 -47 3 -7 -1 -16 -9 -19 -25 -10 -17 -34 10 -34 14 0 25 -5 25 -11 0 -8 6
-7 16 2 14 11 19 10 33 -7 9 -11 24 -23 34 -27 25 -10 32 -36 14 -54 -10 -10
-32 -15 -66 -15 -45 1 -51 -1 -51 -18 0 -11 5 -20 10 -20 6 0 10 5 10 10 0 6
5 10 10 10 6 0 5 -8 -2 -20 -11 -17 -10 -22 2 -30 12 -7 12 -12 0 -34 -17 -33
-34 -34 -28 -1 3 14 1 23 -6 22 -7 -1 -10 11 -8 31 1 17 -2 32 -8 32 -5 0 -10
-4 -10 -9 0 -4 -13 -22 -30 -39 -42 -45 -38 -76 14 -95 19 -7 18 -9 -8 -34
-23 -21 -30 -23 -38 -12 -6 10 -7 7 -3 -10 6 -20 4 -23 -9 -18 -10 4 -19 1
-23 -9 -8 -23 4 -29 22 -10 21 20 55 21 55 1 0 -8 -9 -15 -20 -15 -11 0 -20
-4 -20 -10 0 -5 -20 -10 -45 -10 -25 0 -45 -3 -45 -8 0 -13 -77 -41 -98 -35
-17 4 -23 -1 -28 -21 -7 -31 -14 -32 -41 -6 -22 20 -22 20 -28 0 -4 -11 -15
-20 -26 -20 -21 0 -26 -16 -8 -22 7 -2 0 -12 -15 -21 -14 -10 -26 -13 -26 -7
0 5 5 10 10 10 6 0 10 5 10 10 0 6 -9 10 -20 10 -15 0 -20 -7 -20 -25 0 -20
-5 -25 -24 -25 -13 0 -26 -7 -30 -15 -3 -8 -12 -12 -21 -9 -8 3 -15 1 -15 -5
0 -6 5 -11 10 -11 21 0 9 -19 -15 -22 -17 -2 -22 -7 -16 -16 6 -10 20 -7 65
16 31 17 63 35 71 42 8 7 21 10 30 7 8 -4 17 -2 21 4 4 7 10 6 19 -1 10 -8 14
-7 17 2 3 7 19 11 41 10 21 -2 47 3 60 10 34 19 90 38 112 38 12 0 25 4 30 9
17 14 95 23 95 10 0 -17 -32 -38 -58 -39 -12 0 -25 -7 -28 -15 -4 -8 -24 -18
-46 -21 -22 -4 -42 -13 -45 -20 -3 -8 -13 -14 -22 -14 -10 0 -41 -11 -69 -25
-29 -14 -61 -25 -72 -25 -11 0 -20 -4 -20 -10 0 -5 -7 -10 -15 -10 -8 0 -15
-4 -15 -10 0 -5 -16 -10 -35 -10 -19 0 -35 -4 -35 -10 0 -5 -6 -10 -14 -10
-23 0 -29 -18 -13 -35 9 -8 17 -20 20 -27 2 -7 8 -10 12 -6 4 4 0 15 -9 24
-23 22 -13 29 21 15 29 -12 59 -11 79 1 10 7 81 -6 91 -16 4 -3 -15 -6 -41 -6
-29 0 -53 -6 -63 -15 -9 -9 -23 -13 -34 -10 -10 4 -19 3 -19 0 0 -13 30 -36
39 -31 5 4 11 0 14 -6 3 -10 7 -10 20 1 10 7 17 10 17 5 0 -4 5 -3 12 4 17 17
39 15 32 -3 -4 -8 -12 -15 -18 -15 -17 0 -66 -24 -66 -32 0 -4 -9 -12 -20 -18
-16 -9 -24 -7 -36 5 -9 9 -13 19 -10 23 4 3 11 0 16 -8 5 -8 12 -11 16 -8 3 4
-2 15 -12 25 -12 13 -19 14 -22 5 -2 -6 -12 -12 -23 -12 -10 0 -19 -4 -19 -10
0 -5 -6 -10 -14 -10 -8 0 -17 -6 -20 -12 -5 -10 -7 -10 -12 0 -3 6 -12 12 -19
12 -14 0 -14 -23 0 -67 10 -31 23 -29 17 2 -2 14 -1 25 3 25 10 0 35 -27 35
-39 0 -6 5 -11 10 -11 6 0 10 7 10 15 0 8 4 15 9 15 5 0 12 9 16 20 5 15 12
18 36 13 20 -4 34 -1 42 9 16 19 67 40 67 28 0 -6 -7 -10 -15 -10 -8 0 -15 -4
-15 -9 0 -5 13 -4 30 2 33 12 55 1 27 -14 -9 -6 -17 -17 -17 -24 0 -8 -5 -15
-12 -15 -6 0 -9 -3 -5 -6 3 -3 16 1 29 10 28 20 44 21 26 2 -7 -7 -20 -23 -28
-35 -8 -11 -21 -21 -30 -21 -20 0 -46 -17 -38 -25 8 -8 108 45 108 57 0 4 9 8
20 8 27 0 25 16 -2 31 -22 12 -22 12 -3 19 29 11 40 11 40 1 0 -5 3 -13 7 -17
5 -4 8 -2 8 4 0 7 11 12 25 12 14 0 25 5 25 10 0 6 7 10 15 10 8 0 15 5 15 10
0 6 -10 10 -22 10 -19 0 -20 2 -8 10 24 15 29 12 38 -22 4 -18 11 -32 15 -30
4 1 14 2 23 2 11 0 14 6 9 20 -7 23 10 50 31 50 8 0 14 -7 14 -15 0 -8 6 -15
14 -15 29 0 66 20 66 35 0 11 12 15 48 15 26 0 53 5 60 12 9 9 12 7 12 -9 0
-19 -8 -23 -54 -28 -53 -7 -54 -8 -61 -43 -4 -22 -3 -38 4 -40 14 -5 2 -32
-15 -32 -8 0 -14 -4 -14 -10 0 -5 6 -10 14 -10 23 0 26 -29 5 -49 -18 -17 -19
-20 -5 -34 9 -9 16 -19 16 -24 -1 -16 -40 -54 -50 -48 -5 3 -25 -5 -43 -19
-19 -15 -45 -26 -60 -26 -14 0 -28 -6 -30 -12 -4 -10 -6 -10 -6 0 -1 17 -38
15 -45 -3 -3 -8 -27 -25 -53 -37 -26 -12 -57 -30 -67 -40 -24 -22 -61 -24 -53
-4 7 17 -33 30 -48 15 -7 -7 -4 -14 7 -23 16 -12 14 -15 -21 -31 -22 -9 -44
-14 -51 -10 -16 10 -42 -27 -27 -37 22 -14 -12 -26 -59 -20 -36 4 -48 1 -59
-14 -7 -10 -17 -16 -20 -12 -4 4 -14 1 -22 -7 -13 -14 -42 -20 -83 -17 -7 0
-22 -8 -31 -19 -21 -25 -28 -24 -39 5 -7 19 -14 23 -32 19 -13 -4 -26 -11 -30
-17 -4 -6 -5 7 -3 29 3 24 2 35 -4 27 -5 -9 -23 -13 -52 -11 -41 4 -44 2 -47
-24 -4 -30 -16 -34 -38 -12 -20 19 -38 19 -30 0 3 -8 1 -15 -4 -15 -5 0 -6
-16 -3 -35 5 -30 3 -34 -11 -29 -12 4 -15 2 -11 -9 4 -8 -1 -21 -9 -30 -9 -9
-16 -33 -16 -55 0 -23 -6 -43 -12 -46 -10 -5 -10 -7 -1 -12 7 -3 9 -12 6 -20
-4 -12 -8 -12 -19 3 -7 10 -14 26 -14 36 0 24 -20 22 -20 -3 0 -11 5 -20 10
-20 14 0 12 -36 -2 -60 -10 -16 -10 -24 -1 -39 11 -17 9 -21 -10 -27 -28 -9
-37 -22 -37 -56 0 -20 -4 -26 -15 -22 -12 5 -15 -3 -15 -40 0 -25 -4 -46 -8
-46 -16 0 -44 -62 -38 -85 3 -13 2 -27 -4 -30 -5 -3 -9 -20 -9 -38 1 -18 -2
-43 -7 -57 -6 -21 -5 -23 7 -13 19 16 41 3 29 -17 -22 -34 -5 -53 22 -27 23
24 56 38 63 27 4 -6 13 -5 25 2 11 7 23 9 27 5 4 -5 1 -12 -7 -17 -8 -5 -11
-12 -7 -16 4 -4 14 2 23 14 15 22 38 27 68 16 9 -3 16 -11 16 -16 0 -14 -40
-48 -57 -48 -7 0 -13 -3 -13 -8 0 -4 -14 -13 -30 -20 -18 -8 -30 -21 -30 -32
0 -15 7 -18 35 -17 19 1 35 5 35 10 0 4 9 7 20 7 11 0 20 5 20 10 0 6 12 10
26 10 18 0 25 4 21 14 -9 22 70 39 97 20 27 -18 40 -18 32 2 -3 9 -2 12 5 9 5
-4 28 5 49 19 42 28 60 32 60 16 0 -5 -4 -10 -10 -10 -15 0 -12 -46 4 -59 21
-17 37 9 30 48 -5 24 -3 31 10 31 9 0 16 5 16 10 0 6 9 10 20 10 22 0 27 15 8
24 -7 3 18 4 55 2 37 -2 91 3 120 10 29 7 44 13 35 13 -22 1 -24 37 -3 57 13
14 16 14 21 -1 5 -12 14 -15 31 -10 18 4 24 2 21 -7 -3 -7 -14 -14 -26 -16
-21 -3 -32 -22 -13 -22 5 0 16 -3 24 -6 8 -3 22 2 31 11 15 15 17 15 32 0 13
-12 14 -19 5 -28 -6 -6 -11 -19 -11 -29 0 -14 8 -18 35 -18 19 0 35 5 35 10 0
6 5 10 10 10 12 0 14 -36 3 -43 -5 -2 -2 -2 5 0 8 1 20 3 28 3 10 0 13 10 11
35 -1 25 -7 35 -19 35 -9 0 -18 -5 -20 -11 -2 -5 -11 -7 -21 -4 -19 8 -23 45
-4 45 8 0 7 3 -3 10 -21 13 -9 20 39 22 23 1 44 5 47 10 9 14 32 9 36 -9 3
-16 4 -16 20 0 9 9 25 17 35 18 26 1 91 27 73 29 -8 1 -21 2 -27 1 -7 -1 -13
7 -13 19 0 15 6 20 25 20 14 0 25 3 25 8 0 13 84 35 88 23 5 -16 48 -13 83 5
17 8 40 12 52 9 17 -5 19 -4 7 4 -27 19 1 25 33 8 18 -10 41 -15 50 -11 12 4
17 1 18 -12 0 -11 3 -13 6 -7 2 7 -3 27 -11 44 -9 18 -16 34 -16 36 0 1 16 3
35 3 19 0 35 -4 35 -9 0 -13 25 -20 48 -14 14 3 18 11 15 24 -4 14 0 19 16 19
26 0 76 24 103 50 19 18 77 35 86 25 3 -3 0 -5 -7 -5 -6 0 -22 -9 -34 -20 -52
-47 -86 -70 -105 -70 -24 0 -38 -16 -20 -23 9 -3 4 -11 -12 -25 -23 -18 -59
-48 -87 -72 -7 -5 -15 -10 -18 -10 -4 0 -13 -7 -21 -15 -9 -8 -11 -15 -5 -15
6 0 11 -5 11 -10 0 -6 -11 -8 -25 -4 -17 4 -32 1 -44 -10 -13 -12 -32 -15 -84
-11 -54 3 -67 1 -67 -11 0 -8 6 -14 14 -14 16 0 25 -19 19 -37 -3 -7 -11 -13
-19 -13 -8 0 -14 -3 -14 -8 0 -4 -10 -12 -22 -17 -12 -6 -23 -17 -26 -25 -3
-11 -1 -12 6 -2 5 7 16 10 25 6 11 -4 17 -1 17 9 0 22 40 29 59 9 15 -15 15
-15 -1 -9 -11 4 -18 2 -18 -6 0 -7 -18 -21 -40 -31 -22 -11 -40 -23 -40 -29 0
-5 -12 -7 -28 -3 -15 3 -21 3 -14 0 6 -3 12 -9 12 -14 0 -12 -69 -42 -83 -36
-7 2 -4 5 6 5 9 1 17 5 17 10 0 5 10 12 23 14 l22 4 -22 8 c-15 5 -23 15 -23
31 0 26 -18 32 -38 12 -9 -9 -12 -9 -12 0 0 7 -4 12 -10 12 -21 0 -9 -18 19
-30 30 -12 33 -40 5 -40 -8 0 -14 -10 -14 -23 0 -28 -17 -47 -42 -47 -11 0
-18 -7 -18 -20 0 -11 -5 -20 -11 -20 -20 0 -39 -29 -39 -59 0 -20 -6 -31 -17
-34 -16 -4 -15 -6 4 -12 23 -7 21 -35 -2 -35 -16 0 -26 -25 -19 -45 4 -8 2
-15 -2 -15 -5 0 -10 -11 -10 -25 -1 -15 3 -25 12 -25 8 0 14 -4 14 -10 0 -5
-11 -10 -25 -10 -31 0 -32 -12 -3 -25 12 -6 24 -16 26 -24 3 -10 -5 -7 -26 7
-36 26 -42 27 -42 7 0 -8 5 -15 10 -15 6 0 10 -7 10 -16 0 -17 23 -44 38 -44
19 0 19 -47 0 -61 -10 -7 -18 -21 -18 -31 0 -10 -4 -18 -9 -18 -4 0 6 -15 23
-34 19 -20 35 -30 40 -25 6 5 23 9 39 9 22 0 28 4 23 15 -3 8 0 15 6 15 6 0
19 10 29 22 26 29 32 18 32 -53 -1 -68 -6 -78 -27 -57 -10 10 -11 19 -5 25 7
7 5 12 -6 17 -12 4 -18 0 -22 -14 -3 -11 -12 -20 -19 -20 -8 0 -14 -4 -14 -10
0 -21 -26 -9 -55 25 -36 41 -45 43 -45 10 0 -18 -4 -23 -15 -19 -9 4 -15 0
-15 -10 0 -9 5 -16 10 -16 6 0 10 -9 10 -20 0 -11 -4 -20 -10 -20 -5 0 -10 -4
-10 -10 0 -5 7 -10 15 -10 8 0 15 -4 15 -10 0 -5 -7 -7 -15 -4 -17 7 -21 -11
-5 -21 5 -3 10 -18 10 -32 0 -18 4 -24 14 -20 16 6 56 -24 56 -42 0 -6 5 -11
10 -11 6 0 10 -7 10 -16 0 -24 -24 -11 -30 17 -4 15 -13 24 -25 24 -22 0 -21
7 -9 -126 4 -49 2 -74 -9 -95 -23 -44 -26 -88 -10 -122 15 -31 50 -56 40 -28
-5 13 23 56 37 56 3 0 6 -9 6 -20 0 -11 5 -20 10 -20 6 0 10 5 10 12 0 7 7 5
18 -6 13 -14 14 -20 4 -23 -21 -8 7 -33 37 -33 30 0 81 21 81 33 0 4 -14 7
-30 7 -18 0 -33 6 -36 15 -4 8 -15 15 -25 15 -27 0 -24 20 4 21 49 3 70 -7 47
-21 -13 -8 -12 -10 0 -14 8 -2 23 -7 33 -10 10 -3 31 1 47 9 16 8 38 15 50 15
11 0 20 4 20 8 0 5 32 26 70 47 39 21 70 42 70 47 0 4 9 8 20 8 11 0 20 5 20
12 0 8 3 9 10 2 7 -7 22 0 46 23 20 18 40 33 45 33 30 0 137 89 172 142 9 16
24 28 33 28 8 0 17 7 20 15 4 8 17 15 30 15 17 0 24 6 24 18 0 11 9 27 20 37
11 10 22 26 25 36 3 10 16 20 28 22 19 4 19 4 -4 6 -15 0 -32 -6 -39 -14 -7
-8 -25 -15 -41 -15 -22 0 -30 -6 -35 -24 -5 -23 -44 -68 -44 -52 0 4 -14 -4
-31 -18 -17 -14 -35 -24 -39 -21 -5 3 -18 -2 -28 -12 -29 -27 -62 -53 -68 -53
-3 0 -16 -11 -30 -25 -14 -14 -32 -25 -41 -25 -14 0 -14 2 -1 22 9 13 25 24
37 26 11 2 21 11 21 19 0 28 33 92 49 96 13 2 11 6 -7 15 -20 11 -22 10 -22
-8 0 -23 -14 -41 -46 -58 -16 -8 -20 -18 -17 -37 4 -18 1 -25 -10 -25 -9 0
-17 14 -22 37 -4 23 -9 32 -14 24 -5 -7 -21 -14 -36 -16 -16 -1 -34 -10 -40
-19 -7 -9 -18 -16 -26 -16 -11 0 -11 -2 1 -11 11 -8 12 -12 3 -16 -7 -2 -13
-9 -13 -14 0 -11 -45 -59 -55 -59 -3 0 -18 -11 -33 -25 -15 -14 -32 -25 -39
-25 -29 0 -19 22 33 75 41 40 55 61 51 75 -3 11 -1 23 5 26 15 9 -13 25 -34
19 -10 -3 -26 -7 -37 -10 -15 -5 -17 -1 -14 19 3 15 10 23 18 20 7 -3 18 1 24
8 48 56 61 75 61 91 0 9 5 17 10 17 6 0 10 7 10 15 0 8 -4 15 -10 15 -5 0 -10
18 -10 39 0 33 4 40 25 45 14 4 29 4 34 2 4 -3 14 10 21 29 17 44 34 50 56 19
11 -13 24 -24 30 -24 7 0 27 20 45 45 22 29 42 44 57 45 12 0 22 5 22 10 0 6
-11 10 -25 10 -27 0 -32 18 -14 52 7 12 7 24 2 29 -6 6 -15 -1 -23 -17 -13
-23 -19 -25 -57 -22 -30 2 -43 -1 -43 -9 0 -7 -4 -13 -10 -13 -5 0 -10 5 -10
10 0 6 -7 10 -16 10 -10 0 -14 6 -11 14 4 10 1 13 -9 9 -7 -3 -14 0 -14 7 0
14 25 40 38 40 6 0 12 6 15 13 4 10 -3 12 -24 9 -22 -3 -29 0 -29 12 0 9 -8
16 -18 16 -9 0 -23 9 -30 20 -7 12 -8 20 -2 20 5 0 10 7 10 15 0 11 -8 13 -31
8 -21 -4 -34 -1 -41 8 -7 11 -11 11 -15 2 -8 -21 -20 -15 -27 13 -5 20 -2 32
13 45 26 24 41 24 41 0 0 -29 15 -33 41 -11 12 11 27 19 32 17 14 -4 57 41 57
59 0 20 24 44 43 44 9 0 18 6 20 13 4 9 8 8 17 -3 10 -13 11 -13 6 2 -3 10 6
29 25 49 33 36 38 55 10 40 -16 -9 -18 -8 -14 9 4 15 14 20 37 20 23 0 27 3
16 10 -12 7 -11 12 5 32 11 13 27 29 36 37 15 14 15 16 -4 32 -18 14 -19 18
-7 31 14 13 60 31 60 23 0 -2 -7 -11 -16 -19 -8 -9 -14 -21 -12 -27 3 -8 10
-6 20 5 9 9 22 16 28 16 6 0 18 7 26 15 9 8 20 15 25 15 6 0 -2 -12 -16 -26
-27 -27 -29 -45 -4 -52 12 -3 12 -2 -1 7 -8 5 -12 11 -10 13 32 20 72 39 66
30 -9 -16 36 -1 54 17 22 24 60 43 60 31 0 -5 5 -10 11 -10 6 0 9 7 5 15 -6
16 30 55 51 55 7 0 13 6 13 14 0 18 23 27 41 15 10 -6 10 -9 2 -9 -7 0 -13 -9
-13 -20 0 -13 7 -20 20 -20 11 0 20 4 20 8 0 5 11 15 25 22 14 7 25 19 25 27
0 13 6 15 45 17 13 1 19 7 17 19 -2 9 3 17 10 17 8 0 20 9 28 19 13 19 30 20
30 2 0 -4 -12 -21 -28 -37 -15 -16 -41 -47 -57 -69 -16 -22 -32 -42 -35 -45
-11 -9 -38 -75 -45 -107 -3 -17 -1 -49 4 -71 11 -40 7 -72 -10 -72 -5 0 -9 9
-9 20 0 11 -4 20 -10 20 -5 0 -10 5 -10 10 0 17 -45 58 -66 60 -56 6 -83 -2
-118 -33 -32 -30 -36 -39 -36 -85 0 -28 5 -54 10 -57 6 -3 10 -15 10 -26 0
-10 7 -19 15 -19 9 0 18 -6 21 -13 3 -8 17 -13 33 -12 21 1 28 -2 24 -12 -7
-17 12 -17 29 0 7 8 18 12 24 10 7 -2 19 3 28 12 9 9 20 14 26 10 8 -5 42 39
52 67 2 4 28 9 58 12 68 5 81 10 104 41 26 35 40 31 21 -5 -9 -16 -13 -30 -11
-30 6 0 76 69 76 75 0 2 -11 15 -25 29 -14 14 -25 28 -25 32 0 15 42 42 59 37
12 -3 31 6 52 26 17 17 40 31 50 31 9 0 19 6 22 13 2 6 8 9 12 5 5 -5 -2 -16
-13 -27 -12 -10 -22 -27 -22 -38 0 -12 -7 -26 -15 -33 -8 -7 -15 -18 -14 -24
0 -7 2 -6 6 2 2 6 10 12 17 12 7 0 29 16 50 35 21 19 40 35 41 35 2 0 1 -20 0
-45 -4 -49 0 -52 29 -30 32 24 39 17 11 -10 -31 -32 -31 -35 -2 -27 28 7 47
26 47 46 0 8 8 31 17 51 13 28 22 35 45 35 17 0 27 4 23 10 -10 17 -44 11 -57
-10 -14 -22 -38 -26 -55 -9 -9 9 -8 15 3 27 13 12 30 17 87 21 4 1 7 6 7 11 0
13 41 70 51 70 4 0 10 -11 13 -25 4 -14 12 -25 19 -25 6 0 -3 -13 -22 -29 -32
-26 -34 -30 -19 -45 21 -20 42 -20 59 0 10 13 10 17 0 23 -10 7 -10 12 0 30 8
11 17 21 21 21 5 0 8 5 8 12 0 7 12 24 27 40 29 31 24 50 -9 29 -14 -9 -23
-10 -31 -2 -8 8 -5 11 11 11 12 0 22 5 22 10 0 6 7 10 15 10 13 0 13 4 3 23
-7 12 -14 24 -15 26 -1 2 -17 7 -35 11 -30 7 -31 8 -6 9 14 1 28 6 30 12 2 7
18 13 35 14 22 1 30 -2 26 -12 -3 -7 -9 -13 -14 -13 -5 0 -9 -4 -9 -10 0 -6 9
-6 26 0 37 14 41 13 48 -15 4 -14 13 -25 21 -25 8 0 15 -4 15 -10 0 -5 -4 -10
-10 -10 -15 0 -12 -27 4 -33 15 -6 38 14 35 29 -4 22 3 32 27 43 14 6 30 9 35
6 14 -10 11 0 -10 23 -10 12 -26 22 -35 22 -21 0 -21 16 0 24 33 13 52 7 47
-14 -3 -10 2 -26 11 -35 13 -13 19 -14 36 -3 11 7 20 16 20 20 0 4 8 7 18 6 9
-1 26 0 37 1 l20 2 -20 15 c-20 15 -19 15 5 12 21 -2 25 -8 22 -30 -1 -16 -1
-28 1 -28 9 0 47 38 47 48 0 5 7 12 15 16 18 7 20 -8 2 -26 -7 -7 -14 -25 -15
-40 -1 -15 -10 -37 -19 -49 -41 -49 -92 -99 -102 -99 -6 0 -11 -5 -11 -11 0
-6 -10 -9 -22 -7 -18 2 -22 9 -20 28 5 45 3 63 -7 73 -13 13 -51 -27 -81 -88
-24 -49 -26 -50 -70 -51 -64 -1 -67 -3 -46 -19 11 -8 39 -15 63 -15 28 0 43
-4 43 -12 0 -7 11 0 25 15 19 19 36 27 60 27 19 0 35 5 35 10 0 6 9 10 20 10
11 0 20 -4 20 -10 0 -5 -4 -10 -10 -10 -5 0 -10 -7 -10 -15 0 -28 8 -23 84 55
21 21 46 27 46 11 0 -5 -13 -15 -30 -23 -16 -7 -30 -16 -30 -20 0 -26 80 29
92 62 2 5 16 10 32 12 37 4 57 -23 38 -52 -6 -11 -12 -29 -12 -40 0 -11 -4
-20 -10 -20 -5 0 -10 -9 -10 -20 0 -11 -4 -20 -8 -20 -4 0 -16 -15 -27 -32
-10 -18 -27 -40 -37 -49 -10 -9 -18 -19 -18 -23 0 -11 -68 -76 -80 -76 -5 0
-10 -4 -10 -10 0 -5 -4 -10 -10 -10 -18 0 -11 35 10 50 11 8 20 19 20 25 0 6
16 28 35 48 37 40 45 78 21 103 -17 16 -36 19 -36 4 0 -5 -6 -10 -14 -10 -17
0 -26 -22 -26 -61 0 -16 -4 -29 -10 -29 -5 0 -10 -5 -10 -11 0 -7 -12 -38 -27
-69 -26 -53 -30 -57 -55 -53 -36 7 -61 -13 -53 -44 4 -17 1 -23 -11 -23 -13 0
-11 -4 6 -18 l23 -19 -33 -49 c-19 -27 -37 -51 -42 -52 -4 -2 -8 -12 -8 -23 0
-10 -4 -19 -9 -19 -5 0 -12 -8 -15 -18 -4 -10 -14 -27 -24 -38 -17 -19 -62
-91 -62 -100 0 -2 5 -4 10 -4 6 0 10 5 10 11 0 7 8 19 18 28 9 9 26 33 37 54
11 21 28 47 38 57 9 11 17 24 17 30 0 5 5 10 10 10 6 0 10 6 10 14 0 8 7 16
15 19 8 4 21 21 28 39 13 31 68 98 81 98 3 0 6 -8 6 -18 0 -20 33 -52 55 -52
13 0 13 3 3 21 -10 17 -10 23 0 26 14 6 16 33 2 33 -16 0 -11 27 6 34 12 4 15
2 10 -9 -3 -8 -1 -15 5 -15 6 0 25 -10 42 -22 21 -15 32 -18 35 -10 2 7 8 12
14 12 15 0 37 31 38 52 0 9 -7 23 -15 32 -8 8 -12 22 -9 30 7 19 40 21 47 4 4
-10 7 -10 18 0 11 10 9 17 -16 37 -17 13 -25 24 -20 25 6 0 18 12 27 28 9 15
25 36 35 47 10 11 25 34 33 50 8 17 17 32 21 35 3 3 18 23 34 45 17 22 34 43
39 46 5 4 6 16 4 27 -4 13 1 27 12 37 10 9 16 24 13 32 -5 12 -1 14 18 9 13
-3 18 -3 12 0 -18 8 -16 24 2 24 8 0 15 5 15 10 0 6 7 10 15 10 9 0 28 6 43
14 52 26 72 29 72 10 0 -12 3 -15 10 -8 6 6 31 8 63 3 28 -3 55 -5 59 -3 4 3
9 -4 12 -14 7 -21 75 -62 102 -62 18 0 44 40 44 68 0 25 -28 42 -72 42 -24 0
-50 -6 -57 -12 -11 -11 -14 -10 -18 0 -3 7 -11 19 -19 26 -8 8 -14 19 -14 23
0 12 73 53 94 53 9 0 16 5 16 10 0 6 25 10 55 10 30 0 55 5 55 10 0 6 17 10
38 10 21 0 43 5 49 11 9 9 20 8 45 -2 18 -7 39 -12 46 -11 6 2 12 -2 12 -8 0
-5 9 -10 20 -10 11 0 20 5 20 10 0 6 8 10 18 10 14 0 18 -9 20 -46 2 -54 7
-64 33 -64 26 0 28 60 2 61 -10 0 0 7 22 16 52 22 67 37 52 52 -6 6 -15 11
-20 11 -9 0 -37 25 -37 34 0 11 40 6 61 -6 17 -10 23 -10 26 0 12 32 73 2 73
-37 0 -12 5 -21 11 -21 6 0 8 -7 5 -16 -3 -9 -2 -12 5 -9 5 4 19 -3 30 -16 20
-24 10 -43 -18 -32 -7 3 -13 0 -13 -6 0 -6 -11 -11 -24 -11 -13 0 -26 -6 -29
-14 -8 -19 2 -54 16 -59 15 -6 110 37 127 58 7 8 19 15 26 15 8 0 14 5 14 10
0 6 -4 10 -9 10 -10 0 -71 55 -71 63 0 4 -11 18 -25 33 -32 34 -32 44 1 44 19
0 25 -4 21 -14 -5 -11 2 -14 31 -10 20 2 31 2 25 -2 -28 -13 -3 -64 32 -64 16
0 16 10 -2 58 -4 8 0 10 11 6 9 -3 16 -10 16 -15 0 -5 21 -9 46 -9 l47 0 -7
-32 c-4 -25 -3 -29 5 -18 8 11 12 12 16 3 2 -7 13 -13 23 -13 10 0 22 -4 25
-10 11 -17 37 -11 42 10 3 12 14 20 27 20 12 0 28 6 34 12 10 10 17 10 32 0
11 -6 33 -12 49 -12 32 0 48 -24 31 -45 -7 -8 -7 -15 -1 -19 5 -3 11 0 14 6 3
10 7 10 17 1 8 -8 19 -9 30 -3 19 10 45 -3 36 -19 -4 -6 -18 -11 -32 -11 -14
0 -36 -11 -50 -25 -21 -21 -32 -24 -60 -19 -27 5 -34 3 -34 -10 0 -9 -8 -16
-20 -16 -11 0 -20 -4 -20 -10 0 -20 -38 -10 -43 11 -6 23 9 45 33 47 53 5 90
19 90 33 0 5 -9 9 -20 9 -11 0 -20 6 -20 13 0 8 -4 7 -10 -3 -9 -13 -11 -13
-19 0 -8 12 -13 11 -29 -8 -11 -12 -24 -22 -31 -22 -6 0 -11 -4 -11 -9 0 -5
-9 -11 -20 -14 -11 -3 -20 -11 -20 -17 0 -7 7 -10 16 -6 13 5 15 1 12 -19 -3
-13 -1 -26 4 -27 5 -2 6 -11 3 -21 -6 -15 -9 -14 -26 6 -16 19 -20 20 -30 7
-8 -11 -12 -12 -16 -2 -5 12 -33 18 -33 6 0 -3 7 -12 16 -21 14 -14 13 -17 -6
-35 -12 -11 -19 -23 -15 -26 3 -4 9 -1 13 5 9 14 72 14 90 0 16 -12 27 -2 27
26 0 13 7 21 20 22 11 1 28 6 38 10 16 7 17 5 9 -11 -6 -10 -13 -27 -16 -36
-3 -11 -15 -18 -31 -18 -14 0 -25 -4 -25 -10 0 -5 13 -10 29 -10 16 0 31 -6
35 -15 3 -8 10 -15 15 -15 6 0 8 7 5 15 -4 9 0 15 10 15 9 0 16 5 16 11 0 5 5
7 10 4 6 -4 8 -10 5 -15 -8 -12 6 -41 19 -39 24 3 60 -3 49 -8 -20 -8 -15 -23
7 -23 11 0 20 5 20 10 0 6 20 10 45 10 25 0 45 -4 45 -10 0 -5 -11 -10 -24
-10 -29 0 -38 -11 -25 -30 6 -10 9 -11 9 -2 0 6 5 12 10 12 6 0 10 -8 10 -17
-1 -22 -23 -53 -39 -53 -6 0 -11 -4 -11 -10 0 -5 -13 -10 -30 -10 -16 0 -30
-4 -30 -10 0 -5 -7 -10 -16 -10 -9 0 -14 -6 -12 -12 6 -17 48 -23 48 -7 0 7
10 9 30 6 17 -4 30 -2 30 3 0 6 16 10 35 10 20 0 35 5 35 12 0 6 3 8 7 5 10
-11 -30 -44 -52 -44 -76 1 -85 -2 -85 -33 0 -30 -14 -41 -23 -17 -4 9 -8 9
-15 -2 -6 -8 -24 -14 -41 -14 -26 0 -31 -4 -31 -25 0 -19 4 -23 18 -17 21 9
83 24 98 25 5 0 19 -7 30 -16 18 -14 17 -15 -13 -11 -23 2 -33 -1 -33 -10 0
-7 -7 -13 -15 -13 -8 0 -15 5 -15 12 0 6 -8 1 -19 -10 -10 -12 -26 -22 -35
-22 -9 0 -16 -4 -16 -10 0 -5 -7 -7 -15 -4 -9 4 -15 0 -15 -10 0 -9 -5 -16
-12 -16 -6 0 -8 -3 -5 -7 6 -5 63 14 109 38 10 5 25 9 33 9 8 0 15 5 15 10 0
6 15 10 34 10 19 0 38 5 41 10 4 7 14 3 26 -11 15 -18 21 -20 34 -9 8 7 15 19
15 26 0 8 6 14 13 14 7 0 19 9 27 20 17 24 58 26 75 4 10 -14 15 -15 36 -3 13
8 45 14 71 15 40 1 46 -1 37 -13 -15 -18 -9 -24 18 -17 12 3 24 17 28 32 4 18
9 22 14 13 5 -7 29 -12 59 -13 38 0 52 -4 52 -14 0 -8 9 -14 20 -14 11 0 25
-9 32 -20 7 -11 19 -20 27 -20 11 0 11 3 0 17 -11 13 -11 17 -1 20 18 7 15 23
-10 44 -11 11 -19 20 -17 22 33 19 52 27 67 27 10 0 27 7 38 15 28 21 38 18
53 -17 11 -24 11 -33 3 -36 -7 -2 -12 -8 -12 -14 0 -6 6 -8 14 -5 7 3 23 -5
35 -19 11 -13 25 -24 31 -24 5 0 10 -6 10 -13 0 -6 13 -18 30 -25 25 -12 32
-11 45 2 19 18 2 32 -32 27 -13 -1 -23 3 -23 9 0 7 -13 24 -28 38 -16 15 -37
46 -47 70 -10 23 -23 42 -27 42 -4 0 -3 9 4 20 10 16 20 19 44 14 33 -6 49 11
38 41 -5 11 1 15 20 15 19 0 26 5 26 20 0 10 -8 24 -17 29 -15 7 -17 20 -15
70 2 34 8 61 14 61 11 0 77 70 78 83 0 4 6 7 14 7 7 0 17 10 21 23 4 13 8 17
12 10 7 -19 36 -16 29 3 -3 9 -6 24 -6 35 0 12 -7 19 -19 19 -11 0 -22 6 -24
13 -3 7 -6 5 -6 -5 -1 -10 -2 -18 -4 -18 -1 0 -26 -8 -54 -19 -57 -21 -58 -19
-21 45 l18 31 -25 -5 c-14 -2 -25 -8 -25 -13 0 -5 -9 -9 -20 -9 -20 0 -21 5
-18 112 3 109 4 113 28 125 18 9 20 13 8 13 -14 0 -18 8 -18 35 0 19 5 35 10
35 6 0 10 13 10 29 0 16 6 36 14 43 9 10 11 20 5 30 -5 9 -6 23 -3 32 8 21 34
21 34 0 0 -11 5 -14 16 -10 9 3 18 6 20 6 2 0 4 8 4 18 0 11 8 26 18 34 22 20
90 30 113 17 14 -7 27 -5 48 6 17 8 44 15 61 15 l30 0 0 -83 c0 -67 -4 -87
-18 -103 -16 -17 -17 -22 -5 -33 12 -11 19 -10 43 8 16 11 34 21 40 21 11 0
13 9 10 61 -2 46 60 149 90 149 13 0 20 7 20 19 0 11 5 23 10 26 13 8 13 55 0
75 -8 12 -10 11 -10 -7 0 -13 -4 -23 -10 -23 -5 0 -10 -7 -10 -15 0 -8 -4 -15
-10 -15 -11 0 -13 11 -14 75 -1 33 -5 41 -22 43 -30 4 -38 -24 -17 -58 15 -25
15 -33 3 -55 -7 -14 -19 -25 -27 -25 -17 0 -16 5 3 24 14 14 14 18 0 31 -8 8
-23 15 -34 15 -16 0 -19 6 -17 38 1 20 3 40 4 45 0 4 23 7 49 7 26 0 53 5 58
10 8 8 19 8 38 0 15 -5 36 -10 47 -10 21 0 49 -22 49 -37 0 -5 -9 -15 -20 -23
-11 -8 -20 -24 -20 -37 0 -12 -5 -25 -10 -28 -6 -4 -8 -15 -5 -26 4 -11 -2
-33 -14 -53 -14 -22 -21 -50 -21 -84 0 -28 -4 -54 -10 -57 -5 -3 -10 -15 -10
-25 0 -31 23 -14 50 35 14 25 28 45 32 45 5 0 8 4 8 9 0 5 14 33 32 61 21 34
28 54 21 58 -6 4 41 7 106 7 l117 0 52 50 c32 30 52 58 52 72 0 12 5 25 10 28
6 3 10 31 10 61 0 30 -4 54 -10 54 -5 0 -10 -5 -10 -12 0 -6 -3 -9 -6 -5 -3 3
-3 15 1 26 4 15 15 21 35 21 43 0 60 10 60 34 0 11 14 32 30 44 19 15 32 37
36 60 4 21 11 45 16 54 12 25 -13 80 -48 103 -15 10 -49 39 -76 64 -87 85
-116 111 -122 111 -3 0 -25 18 -48 40 -24 22 -46 40 -49 40 -3 0 -19 11 -34
24 -16 14 -48 35 -72 47 -24 12 -48 28 -54 36 -6 7 -17 13 -24 13 -7 0 -28 19
-46 43 -18 23 -66 75 -107 116 -54 54 -71 76 -61 82 11 6 10 9 -4 15 -10 3
-20 4 -23 1 -4 -3 -18 6 -32 20 -17 17 -22 28 -14 31 16 5 16 114 0 130 -10
10 -10 15 2 22 12 8 9 10 -12 10 -16 0 -28 5 -28 10 0 6 -6 10 -12 10 -7 0
-26 12 -43 26 -24 21 -27 27 -15 34 19 12 27 12 35 0 12 -19 52 -10 69 15 21
32 20 48 -4 65 -15 11 -17 17 -7 29 10 12 9 14 -8 7 -11 -4 -32 -13 -47 -18
-20 -7 -28 -17 -28 -34 0 -13 -10 -35 -21 -49 -19 -21 -25 -22 -43 -12 -12 6
-25 10 -30 9 -5 -2 -12 1 -15 5 -3 5 -23 17 -44 27 -21 10 -41 24 -44 32 -3 8
-10 14 -17 13 -6 -1 -25 4 -42 10 l-32 12 18 36 c13 28 15 40 6 59 -12 27 -26
32 -26 9 0 -8 5 -15 10 -15 18 0 10 -30 -15 -57 -29 -32 -35 -27 -46 29 -14
74 -20 102 -28 123 -36 91 -61 142 -61 128 0 -8 -13 -13 -29 -13 -21 0 -32 -6
-36 -20 -7 -23 10 -50 31 -50 7 0 14 -12 16 -27 2 -17 9 -28 18 -28 10 0 14 9
13 28 -1 15 2 27 8 27 5 0 9 -9 9 -20 0 -11 5 -20 10 -20 6 0 10 -16 10 -35 0
-19 5 -35 11 -35 6 0 9 -16 7 -37 -2 -32 -6 -37 -23 -35 -20 3 -75 25 -107 42
-10 6 -23 10 -29 10 -16 0 -39 27 -39 46 0 14 -3 15 -12 6 -17 -17 -39 -15
-91 7 -31 13 -46 27 -51 44 -7 31 -36 39 -72 21 -31 -16 -64 -18 -64 -4 0 6
-8 10 -18 10 -10 0 -30 6 -45 13 -21 9 -27 19 -27 45 0 21 5 32 14 32 8 0 16
7 20 15 3 8 12 12 19 9 17 -6 28 18 17 36 -9 14 -17 12 -83 -21 -9 -5 -29 -6
-43 -3 -30 8 -71 -12 -80 -38 -6 -20 -40 -25 -46 -6 -2 6 -20 12 -39 13 -18 2
-59 12 -89 24 -30 11 -63 21 -72 21 -13 0 -18 8 -18 31 l0 31 -70 -4 c-42 -2
-70 1 -70 7 0 6 -14 18 -30 27 -29 17 -40 38 -20 38 16 0 12 60 -5 77 -9 8
-31 15 -50 15 -25 0 -36 5 -40 19 -5 15 -10 17 -25 9 -33 -18 -60 -12 -70 15
-5 14 -14 25 -20 25 -5 0 -10 9 -10 20 0 14 7 20 21 20 29 0 49 24 49 58 0 23
-6 32 -28 41 -16 7 -41 9 -55 5 -22 -5 -27 -3 -27 13 0 26 -19 43 -47 43 -20
0 -23 -5 -23 -42z m-2930 -2277 c0 -5 -16 -15 -35 -21 -41 -13 -46 -30 -10
-30 14 0 25 5 25 10 0 6 10 10 21 10 21 0 21 -1 -5 -27 -23 -22 -29 -25 -37
-13 -7 12 -9 10 -9 -9 0 -19 -4 -23 -24 -19 -17 4 -23 1 -19 -9 3 -8 -2 -13
-16 -13 -12 0 -21 -6 -21 -15 0 -9 -9 -15 -25 -15 -20 0 -25 5 -25 25 0 18 5
25 20 25 23 0 24 4 10 30 -9 16 -8 18 5 14 11 -5 13 -2 9 10 -4 11 -19 16 -47
16 -61 0 -34 14 31 16 31 1 58 7 60 13 4 13 92 15 92 2z m1254 -798 c-4 -16
-11 -29 -16 -31 -4 -2 -8 -10 -8 -18 0 -8 -10 -14 -22 -14 -12 0 -32 -10 -45
-22 -18 -17 -26 -19 -35 -10 -16 16 -28 15 -28 0 0 -18 -59 -83 -67 -75 -3 4
2 16 12 27 16 18 16 20 2 20 -10 0 -17 -5 -17 -10 0 -14 -46 -60 -59 -60 -5 0
-11 -5 -13 -12 -3 -7 -11 -9 -24 -4 -12 6 -15 10 -6 13 6 3 12 13 12 24 0 10
4 19 8 19 5 0 14 11 22 24 7 14 18 22 25 20 7 -3 29 11 49 30 19 20 40 36 45
36 5 0 11 4 13 8 2 5 17 12 33 15 17 3 24 4 18 1 -7 -3 -13 -14 -13 -25 0 -10
-4 -19 -10 -19 -5 0 -10 -4 -10 -10 0 -5 9 -10 20 -10 11 0 20 5 20 10 0 6 11
20 25 32 14 12 25 25 25 30 0 14 24 37 38 38 9 0 10 -8 6 -27z"/>
<path d="M3770 6586 c0 -26 5 -36 20 -41 11 -4 32 -17 48 -29 35 -30 116 -43
137 -22 8 8 15 17 15 21 0 11 -28 35 -42 35 -7 0 -19 9 -26 21 -10 15 -20 19
-38 15 -20 -5 -24 -3 -24 15 0 17 -3 19 -14 10 -10 -8 -21 -8 -40 -1 -37 14
-36 14 -36 -24z"/>
<path d="M5060 3470 c0 -5 -7 -10 -15 -10 -8 0 -25 -6 -36 -12 -17 -10 -23
-10 -26 0 -8 21 -45 13 -69 -15 -24 -28 -33 -83 -14 -83 6 0 10 -6 10 -13 0
-13 39 -37 59 -37 21 0 51 40 51 67 0 31 43 73 75 73 8 0 15 9 15 20 0 15 -7
20 -25 20 -14 0 -25 -4 -25 -10z"/>
<path d="M3695 3197 c-16 -7 -36 -20 -43 -29 -7 -10 -20 -18 -28 -18 -8 0 -14
-9 -14 -20 0 -21 24 -28 35 -10 3 6 13 10 21 10 13 0 13 -2 2 -15 -31 -34 -38
-45 -38 -58 0 -24 -66 -87 -91 -87 -19 0 -21 -2 -9 -10 30 -19 54 -9 105 46
46 49 54 54 63 38 6 -10 16 -15 26 -11 23 9 20 38 -4 44 -14 4 -20 14 -20 32
0 15 -5 32 -11 38 -9 9 -8 16 4 27 11 11 17 12 19 4 3 -8 10 -7 26 4 38 26 12
35 -43 15z"/>
<path d="M1730 3155 c0 -17 -27 -19 -64 -5 -21 8 -26 7 -26 -6 0 -11 -6 -13
-21 -9 -19 6 -20 3 -18 -29 2 -19 0 -38 -4 -42 -4 -4 -7 -18 -7 -31 0 -18 -5
-23 -26 -23 -25 0 -54 -20 -54 -38 0 -15 30 -23 48 -13 11 6 24 6 35 0 13 -7
22 -6 34 6 15 15 15 19 0 44 -11 19 -13 31 -6 41 8 12 12 12 16 3 7 -19 17
-16 51 17 18 17 39 30 47 30 8 0 15 8 15 17 0 9 7 25 17 35 15 17 15 18 -10
18 -17 0 -27 -5 -27 -15z"/>
<path d="M2356 2935 c6 -31 4 -35 -16 -35 -15 0 -20 -5 -17 -14 3 -7 1 -18 -5
-24 -6 -6 -6 -12 2 -17 8 -5 7 -12 -4 -23 -8 -10 -12 -28 -9 -44 4 -20 12 -28
39 -33 38 -7 40 -10 19 -31 -8 -9 -15 -20 -15 -25 0 -6 12 2 26 16 14 14 23
29 20 32 -3 4 1 17 9 30 14 21 14 23 -5 23 -11 0 -20 7 -20 15 0 8 4 15 10 15
5 0 14 18 20 39 6 22 14 41 19 43 17 6 -8 48 -29 48 -11 0 -20 5 -20 10 0 6
-7 10 -15 10 -13 0 -15 -7 -9 -35z"/>
<path d="M3283 2785 c-18 -8 -33 -10 -33 -5 0 6 -5 10 -11 10 -6 0 -9 -6 -6
-13 4 -10 -3 -13 -24 -12 -22 1 -40 -9 -74 -41 -25 -24 -45 -39 -45 -34 0 6
-13 10 -30 10 -16 0 -30 5 -30 10 0 6 -13 10 -29 10 -17 0 -32 4 -35 9 -3 5
-17 11 -31 14 -29 5 -55 -15 -55 -41 0 -22 29 -64 39 -57 5 2 25 7 46 9 23 3
43 12 48 23 10 16 11 16 17 -2 9 -26 0 -67 -14 -62 -6 3 -12 -6 -12 -19 -2
-34 19 -30 34 6 8 18 21 30 32 30 24 0 70 21 70 32 0 4 8 8 18 8 25 0 171 114
160 125 -2 2 -18 -3 -35 -10z"/>
</g>
</svg>
