<?xml version="1.0" standalone="no"?>
<!DOCTYPE svg PUBLIC "-//W3C//DTD SVG 20010904//EN"
 "http://www.w3.org/TR/2001/REC-SVG-20010904/DTD/svg10.dtd">
<svg version="1.0" xmlns="http://www.w3.org/2000/svg"
 width="464.000000pt" height="437.000000pt" viewBox="0 0 464.000000 437.000000"
 preserveAspectRatio="xMidYMid meet">

<g transform="translate(0.000000,437.000000) scale(0.100000,-0.100000)"
fill="#000000" stroke="none">
<path d="M2125 3964 c-16 -2 -72 -9 -124 -15 -52 -6 -147 -24 -213 -40 -682
-166 -1228 -682 -1403 -1324 -90 -330 -82 -689 22 -1010 120 -371 379 -712
718 -946 677 -468 1596 -478 2275 -24 111 74 258 195 337 277 133 138 275 350
353 527 239 545 186 1187 -139 1675 -309 466 -796 774 -1359 862 -94 14 -406
27 -467 18z m327 -549 c334 -44 612 -178 838 -405 131 -131 226 -275 289 -437
l21 -53 -1340 0 -1340 0 21 53 c227 576 858 928 1511 842z m1071 -1019 c55
-20 77 -43 77 -83 0 -40 -15 -42 -73 -9 -85 48 -163 41 -216 -19 -83 -95 -81
-303 4 -385 31 -30 43 -35 98 -38 54 -3 69 0 120 27 63 34 72 31 65 -26 -2
-23 -13 -33 -57 -55 -61 -31 -151 -38 -222 -16 -56 16 -112 69 -140 130 -21
46 -24 67 -23 168 0 126 14 172 70 239 60 72 197 102 297 67z m-2315 -128 l3
-128 129 0 130 0 0 131 0 130 48 -3 47 -3 0 -300 0 -300 -47 -3 -48 -3 0 140
0 141 -130 0 -129 0 -3 -137 -3 -138 -45 0 -45 0 -3 290 c-1 159 0 296 3 303
3 9 19 12 47 10 l43 -3 3 -127z m1232 122 c66 -18 123 -63 155 -121 25 -47 30
-67 33 -151 7 -163 -47 -264 -164 -308 -73 -27 -298 -30 -308 -4 -8 20 -8 558
0 578 5 13 26 16 128 16 66 0 137 -5 156 -10z m1110 -739 c0 -15 -78 -151
-127 -219 -60 -86 -209 -234 -294 -295 -340 -241 -770 -330 -1179 -243 -139
29 -233 62 -364 127 -245 122 -469 338 -582 561 -19 37 -34 70 -34 73 0 3 580
5 1290 5 715 0 1290 -4 1290 -9z m-767 -927 c9 -10 -4 -34 -19 -34 -8 0 -14 9
-14 20 0 19 19 27 33 14z m-353 -94 c0 -73 -3 -90 -15 -90 -12 0 -15 17 -15
90 0 73 3 90 15 90 12 0 15 -17 15 -90z m-590 65 c0 -9 -9 -15 -25 -15 -24 0
-25 -2 -25 -70 0 -56 -3 -70 -15 -70 -12 0 -15 14 -15 70 0 68 -1 70 -25 70
-16 0 -25 6 -25 15 0 12 14 15 65 15 51 0 65 -3 65 -15z m112 -42 c10 -9 18
-27 18 -40 0 -20 -5 -23 -40 -23 -23 0 -40 -5 -40 -11 0 -8 12 -10 36 -6 29 5
35 3 32 -11 -5 -24 -64 -28 -89 -6 -39 35 -12 114 38 114 15 0 35 -7 45 -17z
m128 2 c13 -16 9 -18 -27 -16 -24 2 -38 -25 -27 -54 5 -13 14 -15 35 -11 32 6
42 -17 13 -28 -47 -18 -84 7 -84 56 0 56 59 91 90 53z m130 -5 c5 -10 10 -39
10 -64 0 -39 -3 -46 -19 -46 -17 0 -20 8 -23 48 -2 34 -7 47 -18 47 -11 0 -16
-13 -18 -48 -3 -39 -6 -48 -20 -45 -13 2 -18 16 -20 52 -2 27 -1 54 1 60 3 6
25 12 51 14 36 1 48 -2 56 -18z m142 3 c24 -21 23 -68 -2 -93 -41 -41 -110
-15 -110 42 0 57 70 89 112 51z m220 0 c24 -21 23 -68 -2 -93 -41 -41 -110
-15 -110 42 0 57 70 89 112 51z m143 -10 c-9 -39 -23 -53 -54 -54 -25 -1 -24
-1 5 -8 44 -11 54 -19 54 -46 0 -28 -26 -45 -68 -45 -33 0 -58 22 -46 42 4 6
7 35 7 62 -1 28 3 56 9 63 6 7 31 13 55 13 44 0 45 -1 38 -27z m65 -38 c0 -51
-3 -65 -15 -65 -12 0 -15 14 -15 65 0 51 3 65 15 65 12 0 15 -14 15 -65z m119
56 c8 -5 16 -32 19 -64 l4 -55 -38 0 c-57 -1 -74 6 -74 32 0 28 18 46 47 46
13 0 23 5 23 11 0 7 -11 9 -29 6 -34 -7 -45 1 -30 20 13 15 57 17 78 4z"/>
<path d="M2250 2095 l0 -238 80 6 c92 6 136 28 172 85 20 32 23 50 23 142 0
129 -16 168 -82 207 -34 20 -63 27 -119 31 l-74 5 0 -238z"/>
<path d="M1897 633 c-13 -12 -7 -23 13 -23 11 0 20 7 20 15 0 15 -21 21 -33 8z"/>
<path d="M2281 622 c-7 -14 -7 -24 3 -37 19 -27 48 -12 44 22 -4 33 -32 42
-47 15z"/>
<path d="M2501 622 c-7 -14 -7 -24 3 -37 19 -27 48 -12 44 22 -4 33 -32 42
-47 15z"/>
<path d="M2644 639 c-10 -17 13 -36 27 -22 12 12 4 33 -11 33 -5 0 -12 -5 -16
-11z"/>
<path d="M2640 535 c0 -11 7 -15 23 -13 12 2 22 8 22 13 0 6 -10 11 -22 13
-16 2 -23 -2 -23 -13z"/>
<path d="M2850 590 c-8 -5 -11 -12 -8 -16 10 -9 38 3 38 16 0 12 -10 13 -30 0z"/>
</g>
</svg>
